<svg id="Fill_Outline" height="512" viewBox="0 0 64 64" width="512" xmlns="http://www.w3.org/2000/svg"><g id="Color"><g><path d="m6 19h52v42h-52z" fill="#edb88e"/><path d="m24 53c-4.971 0-9-4.029-9-9v-12.779c.61-.549 1-1.336 1-2.221 0 1.657 1.343 3 3 3s3-1.343 3-3c0 1.657 1.343 3 3 3s3-1.343 3-3c0 1.657 1.343 3 3 3s3-1.343 3-3c0 1.657 1.343 3 3 3s3-1.343 3-3c0 1.657 1.343 3 3 3s3-1.343 3-3c0 1.657 1.343 3 3 3s3-1.343 3-3c0 1.657 1.343 3 3 3s3-1.343 3-3v-10h-52v42h52v-8z" fill="#da9367"/><path d="m58 19h-52v-12c0-2.209 1.791-4 4-4h44c2.209 0 4 1.791 4 4z" fill="#edb88e"/><path d="m58 11v8h-52v-12c0-2.21 1.79-4 4-4h5c0 4.42 3.58 8 8 8z" fill="#da9367"/><path d="m8 31c-1.657 0-3-1.343-3-3v-5h6v5c0 1.657-1.343 3-3 3z" fill="#48cae4"/><path d="m14 31c-1.657 0-3-1.343-3-3v-5h6v5c0 1.657-1.343 3-3 3z" fill="#ff7373"/><path d="m20 31c-1.657 0-3-1.343-3-3v-5h6v5c0 1.657-1.343 3-3 3z" fill="#48cae4"/><path d="m26 31c-1.657 0-3-1.343-3-3v-5h6v5c0 1.657-1.343 3-3 3z" fill="#ff7373"/><path d="m32 31c-1.657 0-3-1.343-3-3v-5h6v5c0 1.657-1.343 3-3 3z" fill="#48cae4"/><path d="m38 31c-1.657 0-3-1.343-3-3v-5h6v5c0 1.657-1.343 3-3 3z" fill="#ff7373"/><path d="m44 31c-1.657 0-3-1.343-3-3v-5h6v5c0 1.657-1.343 3-3 3z" fill="#48cae4"/><path d="m50 31c-1.657 0-3-1.343-3-3v-5h6v5c0 1.657-1.343 3-3 3z" fill="#ff7373"/><path d="m56 31c-1.657 0-3-1.343-3-3v-5h6v5c0 1.657-1.343 3-3 3z" fill="#48cae4"/><path d="m59 23h-54l1-4h52z" fill="#ade8f4"/><path d="m12.562 21c-1.133 0-2.001-.927-1.999-2h-4.563l-1 4h54l-.5-2z" fill="#48cae4"/><path d="m12 39h12v22h-12z" fill="#48cae4"/><path d="m28 39h26v18h-26z" fill="#48cae4"/><g fill="#00b4d8"><path d="m59 25v-2h-6v5c0 1.657 1.343 3 3 3 .928 0 1.747-.43 2.297-1.092-1.316-.317-2.297-1.494-2.297-2.908v-2z"/><path d="m47 25v-2h-6v5c0 1.657 1.343 3 3 3 .928 0 1.747-.43 2.297-1.092-1.316-.317-2.297-1.494-2.297-2.908v-2z"/><path d="m17 23v5c0 1.657 1.343 3 3 3 .928 0 1.747-.43 2.297-1.092-1.316-.317-2.297-1.494-2.297-2.908v-2h3v-2z"/><path d="m5 23v5c0 1.657 1.343 3 3 3 .928 0 1.747-.43 2.297-1.092-1.316-.317-2.297-1.494-2.297-2.908v-2h3v-2z"/><path d="m35 25v-2h-6v5c0 1.657 1.343 3 3 3 .928 0 1.747-.43 2.297-1.092-1.316-.317-2.297-1.494-2.297-2.908v-2z"/></g><path d="m35 23v5c0 1.657 1.343 3 3 3 .928 0 1.747-.43 2.297-1.092-1.316-.317-2.297-1.494-2.297-2.908v-2h3v-2z" fill="#ef5350"/><path d="m23 23v5c0 1.657 1.343 3 3 3 .928 0 1.747-.43 2.297-1.092-1.316-.317-2.297-1.494-2.297-2.908v-2h3v-2z" fill="#ef5350"/><path d="m11 23v5c0 1.657 1.343 3 3 3 .928 0 1.747-.43 2.297-1.092-1.316-.317-2.297-1.494-2.297-2.908v-2h3v-2z" fill="#ef5350"/><path d="m53 25v-2h-6v5c0 1.657 1.343 3 3 3 .928 0 1.747-.43 2.297-1.092-1.316-.317-2.297-1.494-2.297-2.908v-2z" fill="#ef5350"/><path d="m15 44v-5h-3v22h12v-8c-4.971 0-9-4.029-9-9z" fill="#00b4d8"/><path d="m28 53h26v4h-26z" fill="#00b4d8"/><g><path d="m40 57c-2.209 0-4-1.791-4-4v-4h8v4c0 2.209-1.791 4-4 4z" fill="#e9f1f2"/></g><path d="m54 42.85v5.65l-9.5-9.5h5.66z" fill="#ade8f4"/><path d="m54 51.33v2.83l-15.16-15.16h2.83z" fill="#ade8f4"/><path d="m54 54.16v-1.16h-1.16z" fill="#48cae4"/><path d="m44 53h-8c0 2.209 1.791 4 4 4s4-1.791 4-4z" fill="#d0d8da"/><path d="m43 55c-2.761 0-5-2.239-5-5v-1h-2v4c0 2.209 1.791 4 4 4 1.477 0 2.752-.809 3.445-2z" fill="#d0d8da"/><path d="m40 57c1.477 0 2.752-.809 3.445-2h-.445c-1.63 0-3.065-.792-3.977-2h-3.023c0 2.209 1.791 4 4 4z" fill="#b8bebf"/></g></g><g id="Outline_copy"><g fill="#323232"><path d="m13 8c0 .552.448 1 1 1s1-.448 1-1c0-1.103-.897-2-2-2h-2c-1.103 0-2 .897-2 2v6c0 1.103.897 2 2 2h2c1.103 0 2-.897 2-2 0-.552-.448-1-1-1s-1 .448-1 1h-2v-6z"/><path d="m17 8v6c0 1.103.897 2 2 2h2c1.103 0 2-.897 2-2v-6c0-1.103-.897-2-2-2h-2c-1.103 0-2 .897-2 2zm4.001 6h-2.001v-6h2z"/><path d="m46 8c.553 0 1-.448 1-1s-.447-1-1-1h-3c-1.103 0-2 .897-2 2v6c0 1.103.897 2 2 2h3c.553 0 1-.448 1-1s-.447-1-1-1h-3v-2h2c.553 0 1-.448 1-1s-.447-1-1-1h-2v-2z"/><path d="m54 8c.553 0 1-.448 1-1s-.447-1-1-1h-3c-1.103 0-2 .897-2 2v6c0 1.103.897 2 2 2h3c.553 0 1-.448 1-1s-.447-1-1-1h-3v-2h2c.553 0 1-.448 1-1s-.447-1-1-1h-2v-2z"/><path d="m30 8c.552 0 1-.448 1-1s-.448-1-1-1h-3c-1.103 0-2 .897-2 2v7c0 .552.448 1 1 1s1-.448 1-1v-3h2c.552 0 1-.448 1-1s-.448-1-1-1h-2v-2z"/><path d="m38 8c.553 0 1-.448 1-1s-.447-1-1-1h-3c-1.103 0-2 .897-2 2v7c0 .552.447 1 1 1s1-.448 1-1v-3h2c.553 0 1-.448 1-1s-.447-1-1-1h-2v-2z"/><path d="m60 28v-5c0-.082-.01-.163-.03-.243l-.97-3.88v-11.877c0-2.757-2.243-5-5-5h-32c-.552 0-1 .448-1 1s.448 1 1 1h32c1.654 0 3 1.346 3 3v12c0 .082.01.163.03.243l.689 2.757h-51.438l.5-2h47.219c.553 0 1-.448 1-1s-.447-1-1-1h-47v-11c0-1.654 1.346-3 3-3h8c.552 0 1-.448 1-1s-.448-1-1-1h-8c-2.757 0-5 2.243-5 5v11.877l-.97 3.88c-.02.08-.03.161-.03.243v5c0 1.005.385 1.914 1 2.618v30.382c0 .552.448 1 1 1h52c.553 0 1-.448 1-1v-26.778c0-.552-.447-1-1-1s-1 .448-1 1v25.778h-32v-21c0-.552-.448-1-1-1h-12c-.552 0-1 .448-1 1v18c0 .552.448 1 1 1s1-.448 1-1v-17h10v8h-2c-.552 0-1 .448-1 1s.448 1 1 1h2v10h-16v-28.142c.322.084.653.142 1 .142 1.2 0 2.266-.542 3-1.382.734.84 1.8 1.382 3 1.382s2.266-.542 3-1.382c.734.84 1.8 1.382 3 1.382s2.266-.542 3-1.382c.734.84 1.8 1.382 3 1.382s2.266-.542 3-1.382c.734.84 1.8 1.382 3 1.382 1.201 0 2.266-.542 3-1.382.734.84 1.799 1.382 3 1.382s2.266-.542 3-1.382c.734.84 1.799 1.382 3 1.382s2.266-.542 3-1.382c.734.84 1.799 1.382 3 1.382s2.266-.542 3-1.382c.734.84 1.799 1.382 3 1.382 2.206 0 4-1.794 4-4zm-52 2c-1.103 0-2-.897-2-2v-4h4v4c0 1.103-.897 2-2 2zm6 0c-1.103 0-2-.897-2-2v-4h4v4c0 1.103-.897 2-2 2zm6 0c-1.103 0-2-.897-2-2v-4h4v4c0 1.103-.897 2-2 2zm6 0c-1.103 0-2-.897-2-2v-4h4v4c0 1.103-.897 2-2 2zm6 0c-1.103 0-2-.897-2-2v-4h4v4c0 1.103-.897 2-2 2zm6 0c-1.103 0-2-.897-2-2v-4h4v4c0 1.103-.897 2-2 2zm6 0c-1.103 0-2-.897-2-2v-4h4v4c0 1.103-.897 2-2 2zm6 0c-1.103 0-2-.897-2-2v-4h4v4c0 1.103-.897 2-2 2zm4-2v-4h4v4c0 1.103-.897 2-2 2s-2-.897-2-2z"/><path d="m28 50c-.552 0-1 .448-1 1v6c0 .552.448 1 1 1h26c.553 0 1-.448 1-1v-18c0-.552-.447-1-1-1h-26c-.552 0-1 .448-1 1v8c0 .552.448 1 1 1s1-.448 1-1v-7h24v16h-9.026c.235-.31.444-.64.602-1h.924c1.93 0 3.5-1.57 3.5-3.5s-1.57-3.5-3.5-3.5h-9.5c-.553 0-1 .448-1 1v4c0 1.13.391 2.162 1.026 3h-7.026v-5c0-.552-.448-1-1-1zm19 1.5c0 .827-.673 1.5-1.5 1.5h-.5v-3h.5c.827 0 1.5.673 1.5 1.5zm-10 1.5v-3h6v3c0 1.654-1.346 3-3 3s-3-1.346-3-3z"/><path d="m12 34c-.552 0-1 .448-1 1s.448 1 1 1h12c.552 0 1-.448 1-1s-.448-1-1-1z"/><path d="m38 45v-1c0-.552-.447-1-1-1s-1 .448-1 1v1c0 .552.447 1 1 1s1-.448 1-1z"/><path d="m41 45v-1c0-.552-.447-1-1-1s-1 .448-1 1v1c0 .552.447 1 1 1s1-.448 1-1z"/><path d="m44 45v-1c0-.552-.447-1-1-1s-1 .448-1 1v1c0 .552.447 1 1 1s1-.448 1-1z"/></g></g></svg>